<?xml version="1.0" encoding="utf-8"?>
<!DOCTYPE svg PUBLIC "-//W3C//DTD SVG 1.1//EN" "http://www.w3.org/Graphics/SVG/1.1/DTD/svg11.dtd">

<svg xmlns="http://www.w3.org/2000/svg" xmlns:xlink="http://www.w3.org/1999/xlink" class="icon" viewBox="0 0 1024 1024" version="1.1" width="200" height="200">
    <path d="M42.666667 505.6c0 51.2 6.4 108.8 23.424 153.6H413.013333c12.8-51.2 17.045333-95.957333 17.045334-147.2a648.405333 648.405333 0 0 0-17.045334-147.2H59.733333C49.066667 409.6 42.666667 454.4 42.666667 505.6z m698.154666-140.8H476.885333c12.757333 44.8 17.024 95.957333 17.024 147.2s-6.4 95.957333-17.024 147.2h263.914667c83.008 0 146.88-63.978667 146.88-147.2 0-83.221333-63.872-147.2-146.88-147.2h0.021333zM95.850667 294.4h300.16c-36.202667-76.8-76.629333-147.2-123.52-204.8-76.586667 51.2-142.549333 121.6-176.597334 204.8h-0.042666z m698.154666 0c76.629333 0 140.48-32 187.306667-83.2C887.68 83.2 730.176 0 553.493333 0c-87.253333 0-157.504 19.2-229.866666 57.6 59.584 64 100.053333 147.2 129.834666 230.4l340.544 6.4zM89.493333 729.6h300.117334c-29.802667 76.8-70.229333 147.2-123.456 198.4-70.229333-44.8-136.213333-115.2-176.64-198.4z m704.533334 0c76.629333 0 140.48 32 187.306666 83.2-93.653333 127.957333-257.536 211.2-427.84 211.2-87.253333 0-157.504-25.6-229.866666-57.6 59.584-63.978667 100.053333-147.2 129.834666-230.4l340.565334-6.4z" fill="#1890ff"/>
    <defs>
        <linearGradient id="paint0_linear" x1="2.94192" y1="4.89955" x2="37.7772" y2="39.7345"
                        gradientUnits="userSpaceOnUse">
            <stop offset="0.15937" stop-color="#3BEA62"/>
            <stop offset="0.5404" stop-color="#3C99CC"/>
            <stop offset="0.93739" stop-color="#6B57FF"/>
        </linearGradient>
    </defs>
</svg>
